<?xml version="1.0" encoding="UTF-8"?><svg xmlns="http://www.w3.org/2000/svg" xmlns:xlink="http://www.w3.org/1999/xlink" viewBox="0 0 330.1 201.04"><defs><style>.cls-1{fill:#fff;}.cls-2{fill:#717073;}.cls-3{fill:url(#radial-gradient-2);}.cls-3,.cls-4{mix-blend-mode:multiply;}.cls-5{isolation:isolate;}.cls-4{fill:url(#radial-gradient);}</style><radialGradient id="radial-gradient" cx="164.68" cy="55.53" fx="164.68" fy="55.53" r="56.01" gradientUnits="userSpaceOnUse"><stop offset="0" stop-color="#fff"/><stop offset=".1" stop-color="#fbdee3"/><stop offset=".35" stop-color="#f299a6"/><stop offset=".57" stop-color="#eb6276"/><stop offset=".76" stop-color="#e73a54"/><stop offset=".91" stop-color="#e4213e"/><stop offset="1" stop-color="#e31937"/></radialGradient><radialGradient id="radial-gradient-2" cx="164.68" cy="55.53" fx="164.68" fy="55.53" r="56.02" gradientUnits="userSpaceOnUse"><stop offset="0" stop-color="#fff"/><stop offset=".32" stop-color="#f8d2cb"/><stop offset=".62" stop-color="#f4b0a4"/><stop offset=".86" stop-color="#f19a8b"/><stop offset="1" stop-color="#f09383"/></radialGradient></defs><g class="cls-5"><g id="Layer_1"><g><rect class="cls-2" x="1.66" y="169.86" width="326.77" height="2.25"/><path class="cls-2" d="m30.81,125.09v2.97c-4.26-2.27-8.43-3.4-12.51-3.4-4.36,0-8,1.5-10.93,4.49-2.93,3-4.4,6.74-4.4,11.23s1.47,8.27,4.42,11.2c2.95,2.93,6.72,4.39,11.29,4.39,3.82,0,7.99-1.21,12.5-3.65v2.85c-4.16,2.23-8.31,3.34-12.46,3.34-5.35,0-9.81-1.73-13.38-5.19-3.57-3.46-5.35-7.77-5.35-12.94s1.82-9.54,5.46-13.03c3.64-3.49,7.97-5.23,13-5.23,3.96,0,8.07.99,12.35,2.97Z"/><path class="cls-2" d="m39.64,122.62v16.06h.1c1.93-3,4.47-4.49,7.63-4.49,2.62,0,4.71.85,6.27,2.54,1.56,1.69,2.34,4.02,2.34,6.98v14.3h-2.48v-13.32c0-5.39-2.1-8.09-6.29-8.09-3,0-5.52,1.67-7.57,5v16.41h-2.47v-35.39h2.47Z"/><path class="cls-2" d="m82.47,153.99v2.08c-2.12,1.63-3.67,2.44-4.66,2.44-.57,0-.96-.19-1.18-.57-.22-.38-.37-1.15-.48-2.31-2.43,1.92-4.85,2.88-7.25,2.88-1.75,0-3.22-.58-4.43-1.73-1.21-1.15-1.81-2.55-1.81-4.2,0-2.54,1.17-4.55,3.5-6.02,2.33-1.47,5.66-2.31,9.99-2.53v-2.97c0-3.18-1.71-4.77-5.13-4.77-2.18,0-4.53.99-7.06,2.97v-2.58c2.61-1.66,5.1-2.5,7.46-2.5,2.09,0,3.82.52,5.17,1.57,1.36,1.04,2.03,2.56,2.03,4.55v14.59c0,.8.18,1.19.55,1.19.47,0,1.56-.7,3.28-2.1Zm-6.31-.54v-7.32c-3.17-.12-5.8.45-7.88,1.69-2.09,1.25-3.13,2.84-3.13,4.77,0,1.09.43,2,1.31,2.75.87.75,1.96,1.12,3.27,1.12,2.11,0,4.26-1,6.44-3.02Z"/><path class="cls-2" d="m90.11,134.68v4h.1c1.93-3,4.47-4.49,7.63-4.49,2.62,0,4.71.85,6.27,2.54,1.56,1.69,2.34,4.04,2.34,7.03v14.25h-2.47v-13.32c0-5.39-2.1-8.09-6.29-8.09-3.07,0-5.59,1.67-7.57,5v16.41h-2.47v-23.33h2.47Z"/><path class="cls-2" d="m116.98,134.68v4h.1c1.93-3,4.47-4.49,7.63-4.49,2.62,0,4.71.85,6.27,2.54,1.56,1.69,2.34,4.04,2.34,7.03v14.25h-2.47v-13.32c0-5.39-2.1-8.09-6.29-8.09-3.07,0-5.59,1.67-7.57,5v16.41h-2.48v-23.33h2.48Z"/><path class="cls-2" d="m161.11,145.45h-18.3c-.05.41-.08.82-.08,1.23,0,2.63.93,4.85,2.78,6.68,1.85,1.83,4.04,2.74,6.57,2.74,2.95,0,5.83-1.15,8.65-3.46v2.8c-2.66,2.05-5.64,3.08-8.94,3.08s-6.12-1.17-8.31-3.51c-2.19-2.34-3.28-5.32-3.28-8.93s1.01-6.26,3.03-8.51c2.02-2.25,4.56-3.37,7.62-3.37,2.88,0,5.31,1.01,7.29,3.03,1.98,2.02,2.97,4.76,2.97,8.23Zm-17.97-1.98h15.07c-.87-4.58-3.33-6.87-7.36-6.87-1.9,0-3.55.6-4.94,1.8-1.39,1.2-2.31,2.89-2.77,5.07Z"/><path class="cls-2" d="m170.51,122.62v35.39h-2.47v-35.39h2.47Z"/><path class="cls-2" d="m198.4,122.62v35.39h-2.72v-35.39h2.72Z"/><path class="cls-2" d="m219.88,136.17v2.66c-2.34-1.57-4.45-2.35-6.32-2.35-1.39,0-2.56.38-3.51,1.14-.95.76-1.43,1.7-1.43,2.82,0,.79.29,1.52.87,2.19.58.67,2.18,1.52,4.8,2.54,2.62,1.03,4.32,2.09,5.13,3.19.8,1.1,1.21,2.33,1.21,3.69,0,1.82-.73,3.35-2.18,4.59-1.45,1.25-3.25,1.87-5.38,1.87-2.32,0-4.63-.72-6.91-2.17v-2.41c2.71,1.45,5.12,2.17,7.22,2.17,1.42,0,2.57-.38,3.48-1.15.91-.77,1.36-1.75,1.36-2.94,0-.82-.29-1.57-.87-2.26-.58-.69-2.19-1.56-4.8-2.61-2.62-1.05-4.32-2.08-5.1-3.11-.78-1.03-1.17-2.17-1.17-3.42,0-1.78.72-3.3,2.17-4.54,1.45-1.25,3.21-1.87,5.28-1.87,1.89,0,3.95.66,6.17,1.98Z"/><path class="cls-2" d="m229.88,122.62v35.39h-2.47v-35.39h2.47Z"/><path class="cls-2" d="m256.77,153.99v2.08c-2.12,1.63-3.68,2.44-4.66,2.44-.57,0-.96-.19-1.18-.57-.22-.38-.37-1.15-.48-2.31-2.43,1.92-4.85,2.88-7.25,2.88-1.75,0-3.22-.58-4.43-1.73-1.21-1.15-1.81-2.55-1.81-4.2,0-2.54,1.17-4.55,3.5-6.02,2.33-1.47,5.66-2.31,9.99-2.53v-2.97c0-3.18-1.71-4.77-5.13-4.77-2.18,0-4.53.99-7.06,2.97v-2.58c2.61-1.66,5.1-2.5,7.46-2.5,2.09,0,3.81.52,5.17,1.57,1.36,1.04,2.03,2.56,2.03,4.55v14.59c0,.8.19,1.19.55,1.19.47,0,1.56-.7,3.28-2.1Zm-6.31-.54v-7.32c-3.17-.12-5.8.45-7.88,1.69-2.09,1.25-3.13,2.84-3.13,4.77,0,1.09.43,2,1.31,2.75.87.75,1.96,1.12,3.27,1.12,2.11,0,4.26-1,6.44-3.02Z"/><path class="cls-2" d="m264.4,134.68v4h.1c1.93-3,4.47-4.49,7.62-4.49,2.62,0,4.71.85,6.27,2.54,1.56,1.69,2.34,4.04,2.34,7.03v14.25h-2.48v-13.32c0-5.39-2.1-8.09-6.29-8.09-3.07,0-5.59,1.67-7.57,5v16.41h-2.47v-23.33h2.47Z"/><path class="cls-2" d="m308.65,122.62v35.39h-2.47v-1.77c-2.1,1.51-4.37,2.26-6.8,2.26-3.27,0-6.03-1.17-8.27-3.52-2.24-2.35-3.36-5.23-3.36-8.66s1.1-6.37,3.32-8.67c2.21-2.31,4.98-3.46,8.32-3.46,2.12,0,4.38.62,6.8,1.86v-13.43h2.47Zm-2.47,31.35v-15.18c-2.2-1.45-4.44-2.18-6.71-2.18-2.65,0-4.84.9-6.55,2.69-1.72,1.79-2.58,4.09-2.58,6.87s.92,5.21,2.75,7.09c1.84,1.89,4.13,2.83,6.88,2.83,2.13,0,4.2-.71,6.2-2.13Z"/><path class="cls-2" d="m329.35,136.17v2.66c-2.34-1.57-4.45-2.35-6.32-2.35-1.39,0-2.56.38-3.51,1.14-.95.76-1.43,1.7-1.43,2.82,0,.79.29,1.52.87,2.19.59.67,2.18,1.52,4.8,2.54,2.62,1.03,4.32,2.09,5.13,3.19.8,1.1,1.2,2.33,1.2,3.69,0,1.82-.73,3.35-2.18,4.59-1.45,1.25-3.25,1.87-5.38,1.87-2.32,0-4.63-.72-6.92-2.17v-2.41c2.71,1.45,5.12,2.17,7.22,2.17,1.42,0,2.58-.38,3.48-1.15.91-.77,1.36-1.75,1.36-2.94,0-.82-.29-1.57-.87-2.26-.58-.69-2.18-1.56-4.8-2.61-2.62-1.05-4.32-2.08-5.1-3.11-.78-1.03-1.17-2.17-1.17-3.42,0-1.78.72-3.3,2.17-4.54,1.44-1.25,3.2-1.87,5.27-1.87,1.89,0,3.95.66,6.17,1.98Z"/><path class="cls-2" d="m9.66,198.19v1.83c-1.03.68-2.22,1.02-3.57,1.02-1.1,0-2.03-.26-2.79-.78-.76-.52-1.37-1.24-1.81-2.16-.45-.92-.67-1.91-.67-2.98,0-1.7.51-3.12,1.53-4.28,1.02-1.16,2.28-1.74,3.78-1.74,1.03,0,2.18.32,3.44.96v1.79c-1.15-.78-2.28-1.18-3.38-1.18s-2.06.42-2.81,1.27c-.75.84-1.12,1.9-1.12,3.16s.37,2.33,1.1,3.15c.73.82,1.67,1.23,2.81,1.23s2.36-.43,3.49-1.3Z"/><path class="cls-2" d="m19.63,189.19h1l4.4,11.7h-1.44l-1.31-3.43h-4.2l-1.23,3.43h-1.44l4.22-11.7Zm2.09,6.77l-1.59-4.22-1.51,4.22h3.11Z"/><path class="cls-2" d="m30.85,189.25h1.42v10.11h4.42v1.52h-5.85v-11.63Z"/><path class="cls-2" d="m42.69,189.25h1.42v11.63h-1.42v-11.63Z"/><path class="cls-2" d="m51,189.25h5.26v1.48h-3.84v3.25h3.84v1.49h-3.84v5.41h-1.42v-11.63Z"/><path class="cls-2" d="m67.34,189.1c1.52,0,2.79.57,3.8,1.71,1.01,1.14,1.52,2.57,1.52,4.28s-.51,3.14-1.53,4.26c-1.02,1.13-2.31,1.69-3.86,1.69s-2.72-.56-3.7-1.69c-.99-1.12-1.48-2.54-1.48-4.23s.5-3.18,1.49-4.32c1-1.14,2.25-1.71,3.77-1.71Zm.05,1.58c-1.13,0-2.05.42-2.78,1.25-.72.83-1.09,1.89-1.09,3.19s.36,2.3,1.09,3.13c.73.83,1.64,1.25,2.73,1.25s2.01-.43,2.75-1.27c.74-.85,1.1-1.91,1.1-3.17s-.37-2.27-1.1-3.11c-.73-.84-1.63-1.26-2.7-1.26Z"/><path class="cls-2" d="m79.14,200.89v-11.63h2.47c1,0,1.79.29,2.37.87.58.58.88,1.37.88,2.36,0,.68-.14,1.26-.43,1.75-.29.49-.7.86-1.23,1.1.32.24.63.58.93,1,.3.42.73,1.16,1.27,2.21.34.66.62,1.16.82,1.49l.52.84h-1.67l-.43-.77s-.04-.07-.08-.14l-.27-.46-.43-.85-.47-.91c-.29-.48-.56-.86-.8-1.14-.25-.29-.46-.49-.66-.61-.2-.12-.53-.19-.99-.19h-.37v5.07h-1.42Zm1.85-10.21h-.42v3.65h.54c.71,0,1.2-.07,1.47-.21.27-.14.47-.36.62-.65.15-.29.22-.62.22-.99s-.08-.69-.25-.99c-.16-.3-.39-.51-.69-.63-.3-.12-.79-.18-1.48-.18Z"/><path class="cls-2" d="m100.39,189.25h1.33v11.63h-1.2l-6.59-8.96v8.96h-1.33v-11.63h1.15l6.65,9.03v-9.03Z"/><path class="cls-2" d="m108.59,189.25h1.42v11.63h-1.42v-11.63Z"/><path class="cls-2" d="m120.04,189.19h1l4.4,11.7h-1.44l-1.3-3.43h-4.2l-1.23,3.43h-1.44l4.22-11.7Zm2.09,6.77l-1.6-4.22-1.51,4.22h3.11Z"/><path class="cls-2" d="m142.42,196.01l-1.07-.76c-.67-.48-1.14-.95-1.43-1.42-.28-.47-.42-1.01-.42-1.62,0-.92.27-1.67.8-2.24.53-.57,1.23-.86,2.08-.86s1.57.27,2.25.81v1.89c-.7-.81-1.46-1.22-2.27-1.22-.46,0-.83.13-1.12.38-.29.25-.44.58-.44.98,0,.35.11.68.32.99.21.31.56.63,1.04.96l1.07.75c1.2.84,1.8,1.92,1.8,3.24,0,.94-.27,1.7-.79,2.28-.53.59-1.21.88-2.06.88-.97,0-1.86-.36-2.65-1.09v-2.1c.76,1.16,1.64,1.74,2.64,1.74.44,0,.81-.15,1.1-.44.29-.3.44-.67.44-1.11,0-.72-.43-1.4-1.29-2.02Z"/><path class="cls-2" d="m150.51,189.25h8.23v1.48h-3.43v10.15h-1.42v-10.15h-3.37v-1.48Z"/><path class="cls-2" d="m166.49,189.19h1l4.4,11.7h-1.44l-1.31-3.43h-4.2l-1.23,3.43h-1.44l4.22-11.7Zm2.09,6.77l-1.59-4.22-1.51,4.22h3.11Z"/><path class="cls-2" d="m175.43,189.25h8.23v1.48h-3.43v10.15h-1.42v-10.15h-3.37v-1.48Z"/><path class="cls-2" d="m189.71,189.25h5.6v1.48h-4.18v3.56h4.02v1.49h-4.02v3.62h4.3v1.49h-5.72v-11.63Z"/><path class="cls-2" d="m217.24,189.25h1.42v6.61c0,.89-.06,1.57-.17,2.03-.11.46-.25.83-.41,1.14-.16.3-.36.58-.6.81-.78.79-1.8,1.19-3.06,1.19s-2.31-.39-3.09-1.18c-.23-.25-.43-.52-.6-.82-.16-.3-.29-.67-.4-1.11-.11-.44-.16-1.13-.16-2.07v-6.6h1.42v6.62c0,1.1.11,1.86.32,2.29.21.43.53.77.96,1.03.43.26.94.39,1.53.39.84,0,1.52-.26,2.04-.78.28-.28.47-.61.6-.99.12-.38.19-1.03.19-1.94v-6.62Z"/><path class="cls-2" d="m233.18,189.25h1.33v11.63h-1.21l-6.59-8.96v8.96h-1.33v-11.63h1.15l6.65,9.03v-9.03Z"/><path class="cls-2" d="m241.38,189.25h1.42v11.63h-1.42v-11.63Z"/><path class="cls-2" d="m255.87,189.25h1.43l-4.17,11.69h-.34l-4.19-11.69h1.41l2.93,8.18,2.91-8.18Z"/><path class="cls-2" d="m263.14,189.25h5.6v1.48h-4.18v3.56h4.02v1.49h-4.02v3.62h4.3v1.49h-5.72v-11.63Z"/><path class="cls-2" d="m275.12,200.89v-11.63h2.47c.99,0,1.79.29,2.37.87.58.58.88,1.37.88,2.36,0,.68-.14,1.26-.43,1.75-.29.49-.7.86-1.23,1.1.32.24.63.58.93,1,.3.42.73,1.16,1.27,2.21.34.66.62,1.16.82,1.49l.52.84h-1.68l-.43-.77s-.04-.07-.08-.14l-.27-.46-.44-.85-.47-.91c-.29-.48-.56-.86-.8-1.14-.25-.29-.46-.49-.66-.61-.2-.12-.53-.19-.99-.19h-.37v5.07h-1.42Zm1.84-10.21h-.42v3.65h.54c.71,0,1.2-.07,1.47-.21.27-.14.47-.36.62-.65.15-.29.22-.62.22-.99s-.08-.69-.25-.99c-.16-.3-.39-.51-.69-.63-.3-.12-.79-.18-1.48-.18Z"/><path class="cls-2" d="m290.96,196.01l-1.07-.76c-.67-.48-1.15-.95-1.43-1.42-.28-.47-.42-1.01-.42-1.62,0-.92.27-1.67.8-2.24.53-.57,1.23-.86,2.08-.86s1.56.27,2.25.81v1.89c-.7-.81-1.46-1.22-2.27-1.22-.46,0-.83.13-1.12.38-.29.25-.44.58-.44.98,0,.35.11.68.32.99.21.31.56.63,1.04.96l1.08.75c1.2.84,1.8,1.92,1.8,3.24,0,.94-.27,1.7-.79,2.28-.53.59-1.21.88-2.06.88-.97,0-1.86-.36-2.65-1.09v-2.1c.76,1.16,1.64,1.74,2.64,1.74.44,0,.81-.15,1.1-.44.29-.3.44-.67.44-1.11,0-.72-.43-1.4-1.29-2.02Z"/><path class="cls-2" d="m299.91,189.25h1.42v11.63h-1.42v-11.63Z"/><path class="cls-2" d="m307.39,189.25h8.23v1.48h-3.44v10.15h-1.42v-10.15h-3.37v-1.48Z"/><path class="cls-2" d="m327.57,189.25h1.71l-3.62,5.48v6.15h-1.46v-6.15l-3.62-5.48h1.7l2.64,4,2.64-4Z"/></g><g><path id="white" class="cls-1" d="m221.18,55.52c0,30.67-25.3,55.53-56.5,55.53s-56.49-24.86-56.49-55.53S133.48,0,164.67,0s56.5,24.86,56.5,55.52Z"/><path id="_186_gradient" class="cls-4" d="m221.18,55.52c0,30.67-25.3,55.53-56.5,55.53s-56.49-24.86-56.49-55.53S133.48,0,164.68,0s56.5,24.86,56.5,55.52Z"/><path id="_186_gradient_50_" class="cls-3" d="m221.18,55.52c0,30.67-25.3,55.53-56.5,55.53s-56.5-24.86-56.5-55.53S133.48,0,164.68,0s56.5,24.86,56.5,55.52Z"/></g><g><path class="cls-1" d="m141.02,27.95c-12.36,1.35-21.33,12.96-21.33,27.55s9.93,25.83,22.6,26.55c6.11.36,10.9-2.06,16.03-8.05l1.5-1.75-7.65.24-.33.35c-2.79,2.79-6.66,3.18-9.43,3.01-9.01-.54-16.21-9.5-16.43-20.38-.22-12.22,8.26-21.28,16.34-22.08,4.63-.46,7.18,1.17,10.55,3.69l.24.19,7.49.13-1.42-1.71c-4.66-5.59-11.46-8.48-18.17-7.75Z"/><path class="cls-1" d="m207.67,31.39h-5.15v37.25c-.25,4.17-4.92,7.29-11.11,7.39-5.88-.54-9.89-3.43-10.11-7.37V31.39h-6.27v37.25c.47,7.38,7.57,13.09,16.18,13.09.07,0,1.71.07,1.71.07,8.4,0,15.44-5.86,15.69-13.05V31.39h-.95Z"/><path class="cls-1" d="m161.94,17.57c-11.91.36-20.68,8.55-20.85,19.48-.12,8.64,7,16.06,19.07,19.86-.07-.02,4.58,1.87,4.58,1.87,4.73,1.64,10.19,6.22,10.19,13.79-.52,7.82-6.92,13.99-14.55,13.99-5.76,0-12.4-3.68-15.42-8.56l-.48-.78-5.16,2.89.6.93c3.61,5.62,12.14,11.46,20.15,11.46,6.43,0,12.98-3.14,17.08-8.19,3.3-4.06,4.68-9.04,3.87-13.98-1.61-9.9-6.72-14.93-19.57-19.23-5.34-1.79-14.29-6.04-14.29-14.43,0-3.29,1.54-6.64,4.21-9.21,3.02-2.91,7.09-4.43,10.92-4.09,9.07.49,11.14,3.25,12.36,5.8l.26.55,6.37.07-.4-1.33c-3.43-11.38-15.1-11.02-18.93-10.9Z"/></g></g></g></svg>